<?xml version="1.0" standalone="no"?><!DOCTYPE svg PUBLIC "-//W3C//DTD SVG 1.1//EN" "http://www.w3.org/Graphics/SVG/1.1/DTD/svg11.dtd"><svg t="1704654966016" class="icon" viewBox="0 0 1151 1024" version="1.1" xmlns="http://www.w3.org/2000/svg" p-id="12502" data-darkreader-inline-fill="" xmlns:xlink="http://www.w3.org/1999/xlink" width="224.8046875" height="200"><path d="M238.570264 9.982972a80.355122 80.355122 0 0 1 69.670962-3.83862c16.506068 6.653609 29.045562 19.704919 42.480733 30.772941 55.59602 46.895147 110.680224 94.366087 166.468176 140.941349h117.205879c55.787951-46.639239 110.808178-94.046202 166.340221-140.813395 13.499149-11.131999 26.038642-24.055355 42.672665-30.836918a79.97126 79.97126 0 0 1 67.879606 2.878965 76.388548 76.388548 0 0 1 23.991378 117.717695c-10.876091 11.963701-24.055355 21.752183-36.210987 32.30839-7.741218 6.269747-14.714712 13.563126-23.351608 18.80924 34.483607 0 68.839261-0.319885 103.322868 0.255908a176.64052 176.64052 0 0 1 120.724615 52.908986c32.948159 31.604642 51.821377 76.196617 51.693423 121.236431 0.127954 154.312544 0 308.753042 0.063977 463.065585-0.127954 23.287631 1.215563 47.023101-4.094529 69.92687-9.660528 46.959124-41.968917 87.648501-82.97818 112.983397a179.903347 179.903347 0 0 1-94.30211 25.270918H215.858426c-24.823079-0.127954-49.902066 1.27954-74.341284-4.094528C94.685972 1010.327474 54.124549 980.130326 28.149884 941.744121a169.411118 169.411118 0 0 1-28.02193-95.325743V388.854815c0.127954-23.543539-1.343517-47.279009 3.582712-70.374709 14.906643-75.300939 85.793168-136.718867 164.548866-140.109648 35.891102-1.087609 71.84618-0.255908 107.737282-0.447839-16.953907-11.899724-31.796573-26.358527-47.726849-39.473814A76.77241 76.77241 0 0 1 238.634241 9.982972M219.633069 325.645531a84.321697 84.321697 0 0 0-65.256548 58.027147c-2.55908 10.04439-3.774643 20.472643-3.390782 30.900895 0.127954 126.674476-0.063977 253.348953 0.063978 380.21536-0.63977 34.41963 23.799447 67.111882 56.939537 78.05195 11.899724 4.28646 24.695125 4.350437 37.106665 4.414413 223.087828-0.127954 446.30361 0.063977 669.455414-0.063977a85.025444 85.025444 0 0 0 78.05195-47.342986c8.444965-16.506068 8.317011-35.187355 7.997126-53.228871V422.506722c0-12.987333 0.447839-26.29455-3.390781-38.834044a84.513628 84.513628 0 0 0-53.740687-55.020227c-14.202896-5.118161-29.685332-4.28646-44.655952-4.414414H258.467113c-12.923356 0-25.974665-0.383862-38.770067 1.407494z" p-id="12503"></path><path d="M354.816488 447.393778c21.368321-2.111241 43.504366 4.670322 59.754526 18.233447 18.105493 14.586758 28.469769 37.106665 28.789653 59.946457 0.511816 27.638068 0.127954 55.340112 0.127954 82.914203 0 18.233447-4.92623 36.78678-16.442091 51.181606a80.866938 80.866938 0 0 1-70.630617 30.964872 80.163191 80.163191 0 0 1-64.168939-40.241538c-9.916436-16.634022-10.748137-36.274964-10.428253-54.892273 0.63977-26.870343-1.535448-53.740687 1.279541-80.547053 5.118161-36.019056 34.739515-63.913031 71.718226-67.559721z m426.086875 0c22.072068-2.175218 44.144136 4.734299 60.906112 19.001171 16.761976 14.33085 26.742389 34.803492 27.510113 56.491699 1.151586 25.974665 0.127954 51.885354 0.63977 77.860019 0.063977 18.16947-2.111241 37.106665-12.411539 52.781031-14.97062 24.311263-44.144136 39.217906-73.125721 37.170642a80.61103 80.61103 0 0 1-63.145307-35.571216c-11.579838-16.761976-13.819034-37.362573-13.307218-57.003515 0.511816-26.678412-0.959655-53.356825 0.895679-79.97126 2.687034-36.466895 34.86747-67.623698 71.974134-70.694594z" p-id="12504"></path></svg>